<svg xmlns="http://www.w3.org/2000/svg" width="960" height="1280.135" viewBox="0 0 960 1280.135">
  <path id="Icon_awesome-receipt" data-name="Icon awesome-receipt" d="M896,8.065l-96,112-136-112a39.75,39.75,0,0,0-48,0l-136,112-136-112a39.75,39.75,0,0,0-48,0l-136,112-96-112c-26.5-19.75-64-1-64,32v1200c0,33,37.5,51.75,64,32l96-112,136,112a39.75,39.75,0,0,0,48,0l136-112,136,112a39.75,39.75,0,0,0,48,0l136-112,96,112c26.25,19.75,64,1,64-32v-1200c0-33-37.5-51.75-64-32Zm-96,892a20.059,20.059,0,0,1-20,20H180a20.059,20.059,0,0,1-20-20v-40a20.059,20.059,0,0,1,20-20H780a20.059,20.059,0,0,1,20,20Zm0-240a20.059,20.059,0,0,1-20,20H180a20.059,20.059,0,0,1-20-20v-40a20.059,20.059,0,0,1,20-20H780a20.059,20.059,0,0,1,20,20Zm0-240a20.059,20.059,0,0,1-20,20H180a20.059,20.059,0,0,1-20-20v-40a20.059,20.059,0,0,1,20-20H780a20.059,20.059,0,0,1,20,20Z" transform="translate(0 0.002)" fill="#fff"/>
</svg>
