<svg xmlns="http://www.w3.org/2000/svg" width="211.156" height="211.167" viewBox="0 0 211.156 211.167">
  <path id="Icon_awesome-sun" data-name="Icon awesome-sun" d="M105.583,65.99a39.594,39.594,0,1,0,39.594,39.594A39.657,39.657,0,0,0,105.583,65.99Zm101.624,33.2L168.15,79.682l13.817-41.408a7.131,7.131,0,0,0-9.032-9.032L131.525,43.058l-19.549-39.1a7.14,7.14,0,0,0-12.785,0L79.682,43.017,38.233,29.2A7.131,7.131,0,0,0,29.2,38.233L43.017,79.641,3.959,99.191a7.14,7.14,0,0,0,0,12.785l39.058,19.508L29.2,172.934a7.131,7.131,0,0,0,9.032,9.032L79.641,168.15l19.508,39.058a7.14,7.14,0,0,0,12.785,0l19.508-39.058,41.408,13.817a7.131,7.131,0,0,0,9.032-9.032l-13.817-41.408,39.058-19.508a7.149,7.149,0,0,0,.082-12.827Zm-64.3,43.718a52.786,52.786,0,1,1,0-74.651A52.847,52.847,0,0,1,142.909,142.909Z"/>
</svg>
